<svg xmlns="http://www.w3.org/2000/svg" width="30" height="30" viewBox="0 0 7.938 7.937"><g fill-rule="evenodd"><path d="M0 3.969L.992 2.25 1.984.532H5.953l.992 1.718.992 1.719-.992 1.718-.992 1.719H1.984L.992 5.687z" fill="#003776"/><path d="M5.71 4.842l-.836-.87.835-.87zm-3.188.324l.843-.879.453.472a.207.207 0 0 0 .302 0l.453-.472.842.879zm-.294-.324v-1.74l.835.87zm3.194-2.07l-1 1.042-.453.473-.453-.473-1-1.042zm.07-.435H2.445a.653.653 0 0 0-.652.653v1.958c0 .36.292.653.652.653h3.047c.36 0 .653-.293.653-.653V2.99a.653.653 0 0 0-.653-.653z" fill="#fff"/></g></svg>