<svg xmlns="http://www.w3.org/2000/svg" width="100" height="100" viewbox="0 0 100 100"><path d="M100 0L39.686.006l2.943 11.322h23.726c5.126 0 9.512.63 13.16 1.895 3.647 1.262 6.59 3.054 8.829 5.363 2.241 2.312 3.881 5.018 4.93 8.123 1.047 3.107 1.57 6.574 1.57 10.402 0 3.394-.468 6.606-1.408 9.639-.94 3.033-2.473 5.78-4.606 8.234-2.13 2.456-4.964 4.387-8.504 5.795-3.539 1.409-7.8 2.112-12.781 2.112H56.037l9.647 37.103H100zM46.799 27.361l5.07 19.498h6.035c3.612 0 6.23-.776 7.854-2.33 1.627-1.55 2.437-4.024 2.437-7.418 0-3.396-.813-5.868-2.437-7.422-1.625-1.553-4.242-2.328-7.854-2.328H46.8z" fill="#f5bb00" fill-rule="evenodd"/><path d="M0 .006V100h65.686l-9.649-37.11h-21.1v25.784H9.157l.001-77.346h33.47L39.687.006zM34.938 27.36v19.5h16.93l-5.07-19.498h-11.86z" fill="#003776" fill-rule="evenodd"/><path d="M9.156 11.326v77.348h25.782V62.89h21.1l-4.17-16.032h-16.93V27.361h11.86l-4.17-16.035H9.157z" fill="none"/></svg>