<svg xmlns="http://www.w3.org/2000/svg" viewBox="0 0 81.751 13.602"><path d="M0 0v13.602h4.5v-4.43h2.8c1.273 0 2.335-.137 3.187-.411a7.538 7.538 0 0 0 2.331-1.215 3.994 3.994 0 0 0 1.172-1.462c.274-.585.41-1.181.41-1.79 0-.786-.187-1.459-.562-2.02-.367-.56-.902-1.02-1.605-1.378-.586-.299-1.262-.521-2.027-.668C9.448.076 8.514 0 7.406 0zm17.576 0v13.602h12.62v-2.63h-8.144V7.608h7.557V4.98h-7.557V2.63h8.143V0zM33.98 0v13.602h4.5v-4.43h2.8c1.273 0 2.335-.137 3.187-.411a7.538 7.538 0 0 0 2.331-1.215 3.995 3.995 0 0 0 1.172-1.462c.274-.585.41-1.181.41-1.79 0-.786-.187-1.459-.562-2.02-.367-.56-.902-1.02-1.605-1.378-.586-.299-1.262-.521-2.028-.668-.757-.152-1.69-.228-2.8-.228zm17.576 0v13.602h4.499v-4.43h2.8c1.274 0 2.336-.137 3.187-.411a7.538 7.538 0 0 0 2.332-1.215 3.994 3.994 0 0 0 1.172-1.462 4.19 4.19 0 0 0 .41-1.79c0-.786-.188-1.459-.563-2.02-.367-.56-.902-1.02-1.605-1.378-.586-.299-1.261-.521-2.027-.668C61.003.076 60.07 0 58.961 0zM69.13 0v13.602h12.62v-2.63h-8.144V7.608h7.558V4.98h-7.558V2.63h8.144V0zM4.5 2.54h.774c.742 0 1.336.009 1.78.027.446.012.903.091 1.372.237.351.11.66.305.925.585.266.275.399.603.399.987 0 .39-.067.721-.2.995a1.72 1.72 0 0 1-.62.695c-.336.219-.754.365-1.254.438-.492.073-1.121.11-1.887.11H4.5zm33.98 0h.773c.742 0 1.336.009 1.782.027a5.05 5.05 0 0 1 1.37.237c.352.11.66.305.926.585.266.275.399.603.399.987 0 .39-.067.721-.2.995a1.72 1.72 0 0 1-.62.695c-.336.219-.755.365-1.255.438-.492.073-1.12.11-1.886.11H38.48zm17.576 0h.773c.742 0 1.336.009 1.781.027a5.05 5.05 0 0 1 1.371.237c.352.11.66.305.926.585.265.275.398.603.398.987 0 .39-.066.721-.2.995a1.72 1.72 0 0 1-.62.695c-.336.219-.754.365-1.254.438-.492.073-1.12.11-1.886.11h-1.289z" fill="#003776"/></svg>