<svg xmlns="http://www.w3.org/2000/svg" width="30" height="30" viewBox="0 0 7.938 7.937"><g fill-rule="evenodd"><path d="M0 3.969L.992 2.25 1.984.532H5.953l.992 1.718.992 1.719-.992 1.718-.992 1.719H1.984L.992 5.687z" fill="#003776"/><path d="M5.136 5.615l-.633-.769.215-.124c.282-.163.619.41.619.41.091.158.18.278.02.37l-.287.165zM3.434 3.164c-.317.183-.254.555.067 1.11.321.556.612.797.929.614l-.064.053L5 5.71l-.071.042c-.024.013-.116.066-.143.083-.556.32-1.165-.358-1.715-1.31-.55-.952-.832-1.818-.277-2.14l.144-.082.07-.04.35.931zm.288-.166l-.215.124-.349-.932-.078.029.288-.166c.158-.092.217.045.309.204 0 0 .288.6.045.74z" fill="#fff"/></g></svg>